Run_30002
nRows=4
nColumns=164

# SIMM Motion File Header:
name Run_30002
datacolumns 164
datarows 4
otherdata 1
range 0.03000000 0.06000000
endheader
time	pelvis_tilt	pelvis_list	pelvis_rotation	pelvis_tx	pelvis_ty	pelvis_tz	hip_flexion_r	hip_adduction_r	hip_rotation_r	knee_angle_r	ankle_angle_r	hip_flexion_l	hip_adduction_l	hip_rotation_l	knee_angle_l	ankle_angle_l	lumbar_extension	lumbar_bending	lumbar_rotation	arm_flex_r	arm_add_r	arm_rot_r	elbow_flex_r	pro_sup_r	arm_flex_l	arm_add_l	arm_rot_l	elbow_flex_l	pro_sup_l	subtalar_angle_r	mtp_angle_r	subtalar_angle_l	mtp_angle_l	wrist_flex_r	wrist_dev_r	wrist_flex_l	wrist_dev_l	LASI_tx	LASI_ty	LASI_tz	RASI_tx	RASI_ty	RASI_tz	LPSI_tx	LPSI_ty	LPSI_tz	RPSI_tx	RPSI_ty	RPSI_tz	RTH1_tx	RTH1_ty	RTH1_tz	RTH2_tx	RTH2_ty	RTH2_tz	RTH3_tx	RTH3_ty	RTH3_tz	LTH1_tx	LTH1_ty	LTH1_tz	LTH2_tx	LTH2_ty	LTH2_tz	LTH3_tx	LTH3_ty	LTH3_tz	RTB1_tx	RTB1_ty	RTB1_tz	RTB2_tx	RTB2_ty	RTB2_tz	RTB3_tx	RTB3_ty	RTB3_tz	LTB1_tx	LTB1_ty	LTB1_tz	LTB2_tx	LTB2_ty	LTB2_tz	LTB3_tx	LTB3_ty	LTB3_tz	RCAL_tx	RCAL_ty	RCAL_tz	RTOE_tx	RTOE_ty	RTOE_tz	RMT5_tx	RMT5_ty	RMT5_tz	LCAL_tx	LCAL_ty	LCAL_tz	LTOE_tx	LTOE_ty	LTOE_tz	LMT5_tx	LMT5_ty	LMT5_tz	LACR_tx	LACR_ty	LACR_tz	RACR_tx	RACR_ty	RACR_tz	CLAV_tx	CLAV_ty	CLAV_tz	C7_tx	C7_ty	C7_tz	RUA1_tx	RUA1_ty	RUA1_tz	RUA2_tx	RUA2_ty	RUA2_tz	RUA3_tx	RUA3_ty	RUA3_tz	RLEL_tx	RLEL_ty	RLEL_tz	RMEL_tx	RMEL_ty	RMEL_tz	LUA1_tx	LUA1_ty	LUA1_tz	LUA2_tx	LUA2_ty	LUA2_tz	LUA3_tx	LUA3_ty	LUA3_tz	LLEL_tx	LLEL_ty	LLEL_tz	LMEL_tx	LMEL_ty	LMEL_tz	RFAsuperior_tx	RFAsuperior_ty	RFAsuperior_tz	RFAradius_tx	RFAradius_ty	RFAradius_tz	RFAulna_tx	RFAulna_ty	RFAulna_tz	LFAsuperior_tx	LFAsuperior_ty	LFAsuperior_tz	LFAradius_tx	LFAradius_ty	LFAradius_tz	LFAulna_tx	LFAulna_ty	LFAulna_tz
      0.03000000	      2.87057574	     -8.01451520	     -2.68843211	      1.25279316	      0.94015367	     -0.27920189	     14.61526016	     12.24265962	     -0.75251919	    -48.64252959	     26.43903944	     12.86309382	     -2.54983054	     -0.01499130	    -96.60606886	      7.49456086	    -21.49758218	     13.80076423	     10.02007819	    -20.76522135	    -17.79354124	    -10.29942975	    126.76004113	     92.41529037	    -25.92719494	    -12.02088870	      3.66261638	    109.77493741	     93.87678347	      0.00000000	      0.00000000	      0.00000000	      0.00000000	      0.00000000	      0.00000000	      0.00000000	      0.00000000	      1.26393427	      0.94935474	     -0.40795404	      1.25433634	      0.97094638	     -0.14224707	      1.09163777	      1.00481327	     -0.33418529	      1.08533348	      1.01329745	     -0.24300693	      1.22802146	      0.80828885	     -0.08584939	      1.28034516	      0.71413055	     -0.09330252	      1.24698407	      0.57266133	     -0.11919718	      1.20515052	      0.79024217	     -0.45317476	      1.30878145	      0.68172730	     -0.43369215	      1.26917905	      0.55580073	     -0.43079492	      1.26396576	      0.31453285	     -0.19881885	      1.17908896	      0.23735277	     -0.15786095	      1.16482428	      0.17239477	     -0.22813751	      1.15676275	      0.36781767	     -0.35262615	      1.09393153	      0.38832473	     -0.39962915	      1.02010450	      0.35259854	     -0.34835792	      1.00712691	      0.10956742	     -0.23089061	      1.24092999	      0.07215223	     -0.23848761	      1.21993065	      0.05249968	     -0.16106072	      0.86283603	      0.43642503	     -0.34002285	      0.90887278	      0.19901384	     -0.31404717	      0.88864847	      0.21857126	     -0.40272422	      1.28310194	      1.48152260	     -0.41526197	      1.28898775	      1.42714856	     -0.06863198	      1.33104146	      1.39115861	     -0.21807290	      1.22974571	      1.49615232	     -0.23906499	      1.22472464	      1.29177596	     -0.00160641	      1.15386714	      1.28804192	     -0.00041544	      1.16318098	      1.21854093	      0.01408907	      1.12694139	      1.15059120	      0.03383401	      1.08635498	      1.14638384	     -0.05072248	      1.19978456	      1.39062069	     -0.49624828	      1.10999759	      1.36624570	     -0.47769951	      1.12278319	      1.29170243	     -0.52409637	      1.08603535	      1.23657174	     -0.54715998	      1.04827681	      1.22537205	     -0.46327876	      1.21514970	      1.14687093	      0.01576590	      1.36150858	      1.14792687	     -0.06691189	      1.34742043	      1.08030050	     -0.04332542	      1.15599085	      1.17890776	     -0.53459110	      1.29587546	      1.11426883	     -0.44629571	      1.26326470	      1.05553602	     -0.47680647
      0.04000000	      2.41631446	     -7.61417875	     -2.53932856	      1.25206628	      0.94235528	     -0.28017997	     12.31482257	     11.72176257	     -0.30919822	    -47.21207015	     26.99404956	     16.14717142	     -2.06953146	      0.35749592	    -96.62838043	      8.58441495	    -20.82112829	     13.40493833	     11.92749503	    -20.91456422	    -16.72092228	    -11.25649753	    128.27521901	     92.54902927	    -27.68674134	    -12.91565805	      3.91950895	    111.05331315	     92.86282712	      0.00000000	      0.00000000	      0.00000000	      0.00000000	      0.00000000	      0.00000000	      0.00000000	      0.00000000	      1.26302151	      0.95202781	     -0.40822477	      1.25350803	      0.97162170	     -0.14467695	      1.09098603	      1.00863044	     -0.33464560	      1.08519891	      1.01688512	     -0.24278903	      1.22303207	      0.80819193	     -0.08675100	      1.27210677	      0.71218525	     -0.09426044	      1.23219678	      0.57136667	     -0.11909471	      1.20664645	      0.79442850	     -0.45432386	      1.31560784	      0.69092592	     -0.43559904	      1.28195594	      0.56415147	     -0.43155965	      1.23975053	      0.31194583	     -0.19886493	      1.15327431	      0.23677539	     -0.15797600	      1.13699469	      0.17229912	     -0.22770069	      1.17904338	      0.37080080	     -0.35265708	      1.11470645	      0.38841671	     -0.39913922	      1.04315707	      0.34896081	     -0.34767848	      0.97793708	      0.11174793	     -0.23090202	      1.21111791	      0.07162801	     -0.23841307	      1.18979708	      0.05264229	     -0.16096597	      0.88047089	      0.42395680	     -0.33785678	      0.94230893	      0.18995887	     -0.31525430	      0.92059893	      0.20921855	     -0.40343662	      1.27585411	      1.48589818	     -0.41583360	      1.29449294	      1.42942761	     -0.07019407	      1.33152041	      1.39399560	     -0.22101709	      1.22967984	      1.49880505	     -0.23799208	      1.23244676	      1.29290279	     -0.00428645	      1.16101644	      1.28914943	     -0.00144632	      1.17041338	      1.21978614	      0.01202800	      1.13527193	      1.15084225	      0.03113540	      1.09551133	      1.14747032	     -0.05387307	      1.18732428	      1.39913100	     -0.49528985	      1.09875278	      1.37562717	     -0.47258891	      1.10827867	      1.30265456	     -0.52332606	      1.06963777	      1.24818121	     -0.54618168	      1.03432303	      1.23718958	     -0.46134344	      1.22319639	      1.14916458	      0.01156316	      1.36800851	      1.15750512	     -0.07378453	      1.35684431	      1.08895322	     -0.05165063	      1.13868523	      1.19015230	     -0.53592190	      1.28117959	      1.12442536	     -0.45226465	      1.24685712	      1.06598051	     -0.48090137
      0.05000000	      1.95505215	     -7.11850405	     -2.56908993	      1.25167163	      0.94521025	     -0.28060202	      9.83113874	     11.16407826	      0.39996983	    -45.39024887	     27.12450075	     19.21961111	     -1.58922947	      0.45112278	    -96.08712074	      9.58250249	    -20.11286187	     12.78825636	     13.80287092	    -21.02758603	    -15.79608176	    -11.79907335	    130.00071642	     93.04420119	    -29.60779061	    -13.92709602	      3.98694215	    112.66930980	     91.75672932	      0.00000000	      0.00000000	      0.00000000	      0.00000000	      0.00000000	      0.00000000	      0.00000000	      0.00000000	      1.26275151	      0.95552349	     -0.40746754	      1.25295663	      0.97292191	     -0.14627123	      1.09045963	      1.01317985	     -0.33491999	      1.08518952	      1.02078900	     -0.24286829	      1.21790234	      0.80854807	     -0.08777991	      1.26337028	      0.71069189	     -0.09527615	      1.21667773	      0.57091347	     -0.11937084	      1.20851661	      0.79959377	     -0.45561997	      1.32196984	      0.70090894	     -0.43729093	      1.29374965	      0.57324913	     -0.43217185	      1.21499852	      0.31032080	     -0.19906390	      1.12700689	      0.23708712	     -0.15818065	      1.10913789	      0.17273874	     -0.22741116	      1.20108250	      0.37451959	     -0.35328350	      1.13504858	      0.38871632	     -0.39851228	      1.06650194	      0.34518771	     -0.34677883	      0.94895949	      0.11462546	     -0.23078512	      1.18132219	      0.07104690	     -0.23833978	      1.15961304	      0.05270752	     -0.16091673	      0.89832416	      0.41015751	     -0.33512250	      0.97683252	      0.18079156	     -0.31653810	      0.95328986	      0.19965989	     -0.40406073	      1.26909910	      1.49102991	     -0.41633509	      1.29956594	      1.43297755	     -0.07211800	      1.33204140	      1.39776457	     -0.22425646	      1.22950954	      1.50227275	     -0.23739210	      1.23969665	      1.29538673	     -0.00696474	      1.16790449	      1.29161638	     -0.00253452	      1.17764612	      1.22246399	      0.01018387	      1.14362408	      1.15247838	      0.02870357	      1.10355355	      1.14990783	     -0.05630038	      1.17544613	      1.40867447	     -0.49396757	      1.08834544	      1.38579811	     -0.46749747	      1.09423192	      1.31485978	     -0.52232172	      1.05381541	      1.26107147	     -0.54468149	      1.02062613	      1.24972689	     -0.45916540	      1.23109432	      1.15366491	      0.00716960	      1.37360641	      1.16911179	     -0.08152074	      1.36564147	      1.09993456	     -0.06044749	      1.12228538	      1.20315724	     -0.53668557	      1.26691295	      1.13635251	     -0.45754861	      1.23125387	      1.07811074	     -0.48404469
      0.06000000	      1.49481178	     -6.49447644	     -2.80378767	      1.25173304	      0.94917151	     -0.28040803	      7.11570001	     10.51462959	      1.43582772	    -43.08612593	     26.66579543	     21.99187932	     -1.12818900	      0.20330949	    -94.82346450	     10.57410722	    -19.38034212	     11.90040398	     15.55377202	    -21.06995901	    -15.08261322	    -11.74434738	    131.98107433	     93.93716612	    -31.76933888	    -14.93293336	      3.74080452	    114.69825285	     90.72188314	      0.00000000	      0.00000000	      0.00000000	      0.00000000	      0.00000000	      0.00000000	      0.00000000	      0.00000000	      1.26316859	      0.96029493	     -0.40560371	      1.25283157	      0.97525552	     -0.14679183	      1.09037187	      1.01872359	     -0.33504874	      1.08546852	      1.02521550	     -0.24328358	      1.21272043	      0.80969044	     -0.08902569	      1.25405405	      0.70991749	     -0.09658249	      1.20015504	      0.57180658	     -0.12017796	      1.21087125	      0.80617154	     -0.45710961	      1.32756819	      0.71194862	     -0.43867471	      1.30412257	      0.58339084	     -0.43264378	      1.18953604	      0.31018699	     -0.19937961	      1.10015999	      0.23874522	     -0.15850850	      1.08132097	      0.17401500	     -0.22723660	      1.22256438	      0.37913701	     -0.35437063	      1.15473098	      0.38924227	     -0.39768998	      1.09005098	      0.34120007	     -0.34561835	      0.92037674	      0.11874959	     -0.23036581	      1.15155386	      0.07041004	     -0.23834694	      1.12940258	      0.05268437	     -0.16096287	      0.91666963	      0.39439726	     -0.33161071	      1.01296191	      0.17161046	     -0.31776947	      0.98708498	      0.18987031	     -0.40442578	      1.26312215	      1.49719372	     -0.41680015	      1.30395420	      1.43840361	     -0.07452114	      1.33253177	      1.40293917	     -0.22781702	      1.22918522	      1.50693010	     -0.23748561	      1.24626822	      1.29993252	     -0.00954963	      1.17445378	      1.29593778	     -0.00347501	      1.18501201	      1.22704507	      0.00862796	      1.15206850	      1.15607956	      0.02672861	      1.11018724	      1.15430533	     -0.05766086	      1.16465181	      1.41959166	     -0.49219262	      1.07930746	      1.39709014	     -0.46241141	      1.08105463	      1.32876950	     -0.52091723	      1.03896739	      1.27572755	     -0.54241899	      1.00765695	      1.26347463	     -0.45655619	      1.23879259	      1.16109608	      0.00270537	      1.37784580	      1.18353797	     -0.09005472	      1.37345257	      1.11409913	     -0.06967905	      1.10724978	      1.21843608	     -0.53665063	      1.25345215	      1.15062785	     -0.46185024	      1.21696697	      1.09245993	     -0.48609205
